# xmcd
#
# Track frame offsets:
#	150
#	20795
#	32025
#	49230
#	66640
#	83590
#	98030
#	119380
#	135592
#	152207
#	169180
#	190222
#	206162
#	216152
#
# Disc length: 3074 seconds
#
# Revision: 5
# Processed by: cddbd v1.5.2PL0 Copyright (c) Steve Scherf et al.
# Submitted via: EasyCDDAExtractor 16.1.0.1
#
DISCID=ce0c000e
DTITLE=Pussycat - The Best of Pussycat
DYEAR=1996
DGENRE=Country
TTITLE0=Mississippi
TTITLE1=Georgie
TTITLE2=Smile
TTITLE3=My Broken Souvenirs
TTITLE4=Just a Woman
TTITLE5=Mexicali Lane
TTITLE6=If You Ever Come to Amsterdam
TTITLE7=Wet Day in September
TTITLE8=Bad Boy
TTITLE9=Hey Joe
TTITLE10=I'll Be Your Woman
TTITLE11=It's the Same Old Song
TTITLE12=You Don't Know
TTITLE13=Goodbye to Lovin'
EXTD=
EXTT0=
EXTT1=
EXTT2=
EXTT3=
EXTT4=
EXTT5=
EXTT6=
EXTT7=
EXTT8=
EXTT9=
EXTT10=
EXTT11=
EXTT12=
EXTT13=
PLAYORDER=
